<svg width="7022" height="3200" viewBox="0 0 7022 3200" fill="none" xmlns="http://www.w3.org/2000/svg">
<g clip-path="url(#clip0_2_365)">
<path d="M138.52 3052.36C138.52 3052.36 85.2 3083.32 97.88 3170.72C97.88 3170.72 141.88 3170.96 162.08 3187.56C182.28 3204.16 271.76 3146.76 213.4 3065.56C213.4 3065.56 231.8 3143.8 303.64 3143.32C303.64 3143.32 329.08 3137.84 342.56 3143.32C356.04 3148.8 393.68 3036.72 306 3016.44C306 3016.44 354.52 3008.44 374 2962.56C374 2962.56 377 2945.24 402.44 2937.76C402.44 2937.76 281.64 2827.6 235.76 2936.56C235.76 2936.56 247.48 2881.72 218.68 2857.36C218.68 2857.36 179.4 2818.32 182.4 2804.72C182.4 2804.72 74.4 2858.64 162.08 2962.56C162.08 2962.56 127 2915.32 74.64 2934.56C22.28 2953.8 49 3016.92 25.24 3026.72C25.24 3026.72 79.64 3081.64 138.52 3052.36Z" fill="#797D63"/>
<path d="M191.16 2986.4C191.16 2986.4 170.6 2969.4 162.08 2982.4C153.56 2995.4 174.08 3002.8 174.08 3002.8C174.08 3002.8 151.88 2992.64 149 3012C146.12 3031.36 170.04 3022.04 170.04 3022.04C170.04 3022.04 147.48 3029.48 162.04 3041.4C176.6 3053.32 183.84 3034.8 183.84 3034.8C183.84 3034.8 179.84 3059.48 197.88 3052.76C215.92 3046.04 216.4 3026.96 205.88 3026.64C205.88 3026.64 226.64 3052.76 233.36 3033.12C240.08 3013.48 213.84 3012 213.84 3012C213.84 3012 242.84 3021.32 246.2 3007.28C249.56 2993.24 218.52 2983.28 213.84 2997.48C213.84 2997.48 234.96 2975.28 218.68 2971.36C202.4 2967.44 188.28 2969.4 191.16 2986.4Z" fill="#EDC06F"/>
</g>
<path d="M130.28 2647.64C130.28 2647.64 76.96 2678.6 89.64 2766C89.64 2766 133.64 2766.24 153.84 2782.84C174.04 2799.44 263.52 2742.04 205.16 2660.84C205.16 2660.84 223.56 2739.08 295.4 2738.6C295.4 2738.6 320.84 2733.12 334.32 2738.6C347.8 2744.08 385.44 2632 297.76 2611.72C297.76 2611.72 346.28 2603.72 365.76 2557.84C365.76 2557.84 368.76 2540.52 394.2 2533.04C394.2 2533.04 273.4 2422.88 227.52 2531.84C227.52 2531.84 239.24 2477 210.44 2452.64C210.44 2452.64 171.16 2413.6 174.16 2400C174.16 2400 66.16 2453.92 153.84 2557.84C153.84 2557.84 118.76 2510.6 66.4 2529.84C14.04 2549.08 40.76 2612.2 17 2622C17 2622 71.4 2676.92 130.28 2647.64Z" fill="#797D63"/>
<path d="M182.92 2581.68C182.92 2581.68 162.36 2564.68 153.84 2577.68C145.32 2590.68 165.84 2598.08 165.84 2598.08C165.84 2598.08 143.64 2587.92 140.76 2607.28C137.88 2626.64 161.8 2617.32 161.8 2617.32C161.8 2617.32 139.24 2624.76 153.8 2636.68C168.36 2648.6 175.6 2630.08 175.6 2630.08C175.6 2630.08 171.6 2654.76 189.64 2648.04C207.68 2641.32 208.16 2622.24 197.64 2621.92C197.64 2621.92 218.4 2648.04 225.12 2628.4C231.84 2608.76 205.6 2607.28 205.6 2607.28C205.6 2607.28 234.6 2616.6 237.96 2602.56C241.32 2588.52 210.28 2578.56 205.6 2592.76C205.6 2592.76 226.72 2570.56 210.44 2566.64C194.16 2562.72 180.04 2564.68 182.92 2581.68Z" fill="#EDC06F"/>
<path d="M130.28 2247.64C130.28 2247.64 76.96 2278.6 89.64 2366C89.64 2366 133.64 2366.24 153.84 2382.84C174.04 2399.44 263.52 2342.04 205.16 2260.84C205.16 2260.84 223.56 2339.08 295.4 2338.6C295.4 2338.6 320.84 2333.12 334.32 2338.6C347.8 2344.08 385.44 2232 297.76 2211.72C297.76 2211.72 346.28 2203.72 365.76 2157.84C365.76 2157.84 368.76 2140.52 394.2 2133.04C394.2 2133.04 273.4 2022.88 227.52 2131.84C227.52 2131.84 239.24 2077 210.44 2052.64C210.44 2052.64 171.16 2013.6 174.16 2000C174.16 2000 66.16 2053.92 153.84 2157.84C153.84 2157.84 118.76 2110.6 66.4 2129.84C14.04 2149.08 40.76 2212.2 17 2222C17 2222 71.4 2276.92 130.28 2247.64Z" fill="#797D63"/>
<path d="M182.92 2181.68C182.92 2181.68 162.36 2164.68 153.84 2177.68C145.32 2190.68 165.84 2198.08 165.84 2198.08C165.84 2198.08 143.64 2187.92 140.76 2207.28C137.88 2226.64 161.8 2217.32 161.8 2217.32C161.8 2217.32 139.24 2224.76 153.8 2236.68C168.36 2248.6 175.6 2230.08 175.6 2230.08C175.6 2230.08 171.6 2254.76 189.64 2248.04C207.68 2241.32 208.16 2222.24 197.64 2221.92C197.64 2221.92 218.4 2248.04 225.12 2228.4C231.84 2208.76 205.6 2207.28 205.6 2207.28C205.6 2207.28 234.6 2216.6 237.96 2202.56C241.32 2188.52 210.28 2178.56 205.6 2192.76C205.6 2192.76 226.72 2170.56 210.44 2166.64C194.16 2162.72 180.04 2164.68 182.92 2181.68Z" fill="#EDC06F"/>
<path d="M130.28 1447.64C130.28 1447.64 76.96 1478.6 89.64 1566C89.64 1566 133.64 1566.24 153.84 1582.84C174.04 1599.44 263.52 1542.04 205.16 1460.84C205.16 1460.84 223.56 1539.08 295.4 1538.6C295.4 1538.6 320.84 1533.12 334.32 1538.6C347.8 1544.08 385.44 1432 297.76 1411.72C297.76 1411.72 346.28 1403.72 365.76 1357.84C365.76 1357.84 368.76 1340.52 394.2 1333.04C394.2 1333.04 273.4 1222.88 227.52 1331.84C227.52 1331.84 239.24 1277 210.44 1252.64C210.44 1252.64 171.16 1213.6 174.16 1200C174.16 1200 66.16 1253.92 153.84 1357.84C153.84 1357.84 118.76 1310.6 66.4 1329.84C14.04 1349.08 40.76 1412.2 17 1422C17 1422 71.4 1476.92 130.28 1447.64Z" fill="#797D63"/>
<path d="M182.92 1381.68C182.92 1381.68 162.36 1364.68 153.84 1377.68C145.32 1390.68 165.84 1398.08 165.84 1398.08C165.84 1398.08 143.64 1387.92 140.76 1407.28C137.88 1426.64 161.8 1417.32 161.8 1417.32C161.8 1417.32 139.24 1424.76 153.8 1436.68C168.36 1448.6 175.6 1430.08 175.6 1430.08C175.6 1430.08 171.6 1454.76 189.64 1448.04C207.68 1441.32 208.16 1422.24 197.64 1421.92C197.64 1421.92 218.4 1448.04 225.12 1428.4C231.84 1408.76 205.6 1407.28 205.6 1407.28C205.6 1407.28 234.6 1416.6 237.96 1402.56C241.32 1388.52 210.28 1378.56 205.6 1392.76C205.6 1392.76 226.72 1370.56 210.44 1366.64C194.16 1362.72 180.04 1364.68 182.92 1381.68Z" fill="#EDC06F"/>
<path d="M130.28 1061.64C130.28 1061.64 76.96 1092.6 89.64 1180C89.64 1180 133.64 1180.24 153.84 1196.84C174.04 1213.44 263.52 1156.04 205.16 1074.84C205.16 1074.84 223.56 1153.08 295.4 1152.6C295.4 1152.6 320.84 1147.12 334.32 1152.6C347.8 1158.08 385.44 1046 297.76 1025.72C297.76 1025.72 346.28 1017.72 365.76 971.84C365.76 971.84 368.76 954.52 394.2 947.04C394.2 947.04 273.4 836.88 227.52 945.84C227.52 945.84 239.24 891 210.44 866.64C210.44 866.64 171.16 827.6 174.16 814C174.16 814 66.16 867.92 153.84 971.84C153.84 971.84 118.76 924.6 66.4 943.84C14.04 963.08 40.76 1026.2 17 1036C17 1036 71.4 1090.92 130.28 1061.64Z" fill="#797D63"/>
<path d="M182.92 995.68C182.92 995.68 162.36 978.68 153.84 991.68C145.32 1004.68 165.84 1012.08 165.84 1012.08C165.84 1012.08 143.64 1001.92 140.76 1021.28C137.88 1040.64 161.8 1031.32 161.8 1031.32C161.8 1031.32 139.24 1038.76 153.8 1050.68C168.36 1062.6 175.6 1044.08 175.6 1044.08C175.6 1044.08 171.6 1068.76 189.64 1062.04C207.68 1055.32 208.16 1036.24 197.64 1035.92C197.64 1035.92 218.4 1062.04 225.12 1042.4C231.84 1022.76 205.6 1021.28 205.6 1021.28C205.6 1021.28 234.6 1030.6 237.96 1016.56C241.32 1002.52 210.28 992.56 205.6 1006.76C205.6 1006.76 226.72 984.56 210.44 980.64C194.16 976.72 180.04 978.68 182.92 995.68Z" fill="#EDC06F"/>
<path d="M113.28 651.64C113.28 651.64 59.96 682.6 72.64 770C72.64 770 116.64 770.24 136.84 786.84C157.04 803.44 246.52 746.04 188.16 664.84C188.16 664.84 206.56 743.08 278.4 742.6C278.4 742.6 303.84 737.12 317.32 742.6C330.8 748.08 368.44 636 280.76 615.72C280.76 615.72 329.28 607.72 348.76 561.84C348.76 561.84 351.76 544.52 377.2 537.04C377.2 537.04 256.4 426.88 210.52 535.84C210.52 535.84 222.24 481 193.44 456.64C193.44 456.64 154.16 417.6 157.16 404C157.16 404 49.16 457.92 136.84 561.84C136.84 561.84 101.76 514.6 49.4 533.84C-2.96 553.08 23.76 616.2 0 626C0 626 54.4 680.92 113.28 651.64Z" fill="#797D63"/>
<path d="M165.92 585.68C165.92 585.68 145.36 568.68 136.84 581.68C128.32 594.68 148.84 602.08 148.84 602.08C148.84 602.08 126.64 591.92 123.76 611.28C120.88 630.64 144.8 621.32 144.8 621.32C144.8 621.32 122.24 628.76 136.8 640.68C151.36 652.6 158.6 634.08 158.6 634.08C158.6 634.08 154.6 658.76 172.64 652.04C190.68 645.32 191.16 626.24 180.64 625.92C180.64 625.92 201.4 652.04 208.12 632.4C214.84 612.76 188.6 611.28 188.6 611.28C188.6 611.28 217.6 620.6 220.96 606.56C224.32 592.52 193.28 582.56 188.6 596.76C188.6 596.76 209.72 574.56 193.44 570.64C177.16 566.72 163.04 568.68 165.92 585.68Z" fill="#EDC06F"/>
<path d="M130.28 265.64C130.28 265.64 76.96 296.6 89.64 384C89.64 384 133.64 384.24 153.84 400.84C174.04 417.44 263.52 360.04 205.16 278.84C205.16 278.84 223.56 357.08 295.4 356.6C295.4 356.6 320.84 351.12 334.32 356.6C347.8 362.08 385.44 250 297.76 229.72C297.76 229.72 346.28 221.72 365.76 175.84C365.76 175.84 368.76 158.52 394.2 151.04C394.2 151.04 273.4 40.88 227.52 149.84C227.52 149.84 239.24 95 210.44 70.64C210.44 70.64 171.16 31.6 174.16 18C174.16 18 66.16 71.92 153.84 175.84C153.84 175.84 118.76 128.6 66.4 147.84C14.04 167.08 40.76 230.2 17 240C17 240 71.4 294.92 130.28 265.64Z" fill="#797D63"/>
<path d="M182.92 199.68C182.92 199.68 162.36 182.68 153.84 195.68C145.32 208.68 165.84 216.08 165.84 216.08C165.84 216.08 143.64 205.92 140.76 225.28C137.88 244.64 161.8 235.32 161.8 235.32C161.8 235.32 139.24 242.76 153.8 254.68C168.36 266.6 175.6 248.08 175.6 248.08C175.6 248.08 171.6 272.76 189.64 266.04C207.68 259.32 208.16 240.24 197.64 239.92C197.64 239.92 218.4 266.04 225.12 246.4C231.84 226.76 205.6 225.28 205.6 225.28C205.6 225.28 234.6 234.6 237.96 220.56C241.32 206.52 210.28 196.56 205.6 210.76C205.6 210.76 226.72 188.56 210.44 184.64C194.16 180.72 180.04 182.68 182.92 199.68Z" fill="#EDC06F"/>
<path d="M138.52 1852.36C138.52 1852.36 85.2 1883.32 97.88 1970.72C97.88 1970.72 141.88 1970.96 162.08 1987.56C182.28 2004.16 271.76 1946.76 213.4 1865.56C213.4 1865.56 231.8 1943.8 303.64 1943.32C303.64 1943.32 329.08 1937.84 342.56 1943.32C356.04 1948.8 393.68 1836.72 306 1816.44C306 1816.44 354.52 1808.44 374 1762.56C374 1762.56 377 1745.24 402.44 1737.76C402.44 1737.76 281.64 1627.6 235.76 1736.56C235.76 1736.56 247.48 1681.72 218.68 1657.36C218.68 1657.36 179.4 1618.32 182.4 1604.72C182.4 1604.72 74.4 1658.64 162.08 1762.56C162.08 1762.56 127 1715.32 74.64 1734.56C22.28 1753.8 49 1816.92 25.24 1826.72C25.24 1826.72 79.64 1881.64 138.52 1852.36Z" fill="#797D63"/>
<path d="M191.16 1786.4C191.16 1786.4 170.6 1769.4 162.08 1782.4C153.56 1795.4 174.08 1802.8 174.08 1802.8C174.08 1802.8 151.88 1792.64 149 1812C146.12 1831.36 170.04 1822.04 170.04 1822.04C170.04 1822.04 147.48 1829.48 162.04 1841.4C176.6 1853.32 183.84 1834.8 183.84 1834.8C183.84 1834.8 179.84 1859.48 197.88 1852.76C215.92 1846.04 216.4 1826.96 205.88 1826.64C205.88 1826.64 226.64 1852.76 233.36 1833.12C240.08 1813.48 213.84 1812 213.84 1812C213.84 1812 242.84 1821.32 246.2 1807.28C249.56 1793.24 218.52 1783.28 213.84 1797.48C213.84 1797.48 234.96 1775.28 218.68 1771.36C202.4 1767.44 188.28 1769.4 191.16 1786.4Z" fill="#EDC06F"/>
<g clip-path="url(#clip1_2_365)">
<path d="M6743.52 3034.36C6743.52 3034.36 6690.2 3065.32 6702.88 3152.72C6702.88 3152.72 6746.88 3152.96 6767.08 3169.56C6787.28 3186.16 6876.76 3128.76 6818.4 3047.56C6818.4 3047.56 6836.8 3125.8 6908.64 3125.32C6908.64 3125.32 6934.08 3119.84 6947.56 3125.32C6961.04 3130.8 6998.68 3018.72 6911 2998.44C6911 2998.44 6959.52 2990.44 6979 2944.56C6979 2944.56 6982 2927.24 7007.44 2919.76C7007.44 2919.76 6886.64 2809.6 6840.76 2918.56C6840.76 2918.56 6852.48 2863.72 6823.68 2839.36C6823.68 2839.36 6784.4 2800.32 6787.4 2786.72C6787.4 2786.72 6679.4 2840.64 6767.08 2944.56C6767.08 2944.56 6732 2897.32 6679.64 2916.56C6627.28 2935.8 6654 2998.92 6630.24 3008.72C6630.24 3008.72 6684.64 3063.64 6743.52 3034.36Z" fill="#797D63"/>
<path d="M6796.16 2968.4C6796.16 2968.4 6775.6 2951.4 6767.08 2964.4C6758.56 2977.4 6779.08 2984.8 6779.08 2984.8C6779.08 2984.8 6756.88 2974.64 6754 2994C6751.12 3013.36 6775.04 3004.04 6775.04 3004.04C6775.04 3004.04 6752.48 3011.48 6767.04 3023.4C6781.6 3035.32 6788.84 3016.8 6788.84 3016.8C6788.84 3016.8 6784.84 3041.48 6802.88 3034.76C6820.92 3028.04 6821.4 3008.96 6810.88 3008.64C6810.88 3008.64 6831.64 3034.76 6838.36 3015.12C6845.08 2995.48 6818.84 2994 6818.84 2994C6818.84 2994 6847.84 3003.32 6851.2 2989.28C6854.56 2975.24 6823.52 2965.28 6818.84 2979.48C6818.84 2979.48 6839.96 2957.28 6823.68 2953.36C6807.4 2949.44 6793.28 2951.4 6796.16 2968.4Z" fill="#EDC06F"/>
</g>
<path d="M6735.28 2629.64C6735.28 2629.64 6681.96 2660.6 6694.64 2748C6694.64 2748 6738.64 2748.24 6758.84 2764.84C6779.04 2781.44 6868.52 2724.04 6810.16 2642.84C6810.16 2642.84 6828.56 2721.08 6900.4 2720.6C6900.4 2720.6 6925.84 2715.12 6939.32 2720.6C6952.8 2726.08 6990.44 2614 6902.76 2593.72C6902.76 2593.72 6951.28 2585.72 6970.76 2539.84C6970.76 2539.84 6973.76 2522.52 6999.2 2515.04C6999.2 2515.04 6878.4 2404.88 6832.52 2513.84C6832.52 2513.84 6844.24 2459 6815.44 2434.64C6815.44 2434.64 6776.16 2395.6 6779.16 2382C6779.16 2382 6671.16 2435.92 6758.84 2539.84C6758.84 2539.84 6723.76 2492.6 6671.4 2511.84C6619.04 2531.08 6645.76 2594.2 6622 2604C6622 2604 6676.4 2658.92 6735.28 2629.64Z" fill="#797D63"/>
<path d="M6787.92 2563.68C6787.92 2563.68 6767.36 2546.68 6758.84 2559.68C6750.32 2572.68 6770.84 2580.08 6770.84 2580.08C6770.84 2580.08 6748.64 2569.92 6745.76 2589.28C6742.88 2608.64 6766.8 2599.32 6766.8 2599.32C6766.8 2599.32 6744.24 2606.76 6758.8 2618.68C6773.36 2630.6 6780.6 2612.08 6780.6 2612.08C6780.6 2612.08 6776.6 2636.76 6794.64 2630.04C6812.68 2623.32 6813.16 2604.24 6802.64 2603.92C6802.64 2603.92 6823.4 2630.04 6830.12 2610.4C6836.84 2590.76 6810.6 2589.28 6810.6 2589.28C6810.6 2589.28 6839.6 2598.6 6842.96 2584.56C6846.32 2570.52 6815.28 2560.56 6810.6 2574.76C6810.6 2574.76 6831.72 2552.56 6815.44 2548.64C6799.16 2544.72 6785.04 2546.68 6787.92 2563.68Z" fill="#EDC06F"/>
<path d="M6735.28 2229.64C6735.28 2229.64 6681.96 2260.6 6694.64 2348C6694.64 2348 6738.64 2348.24 6758.84 2364.84C6779.04 2381.44 6868.52 2324.04 6810.16 2242.84C6810.16 2242.84 6828.56 2321.08 6900.4 2320.6C6900.4 2320.6 6925.84 2315.12 6939.32 2320.6C6952.8 2326.08 6990.44 2214 6902.76 2193.72C6902.76 2193.72 6951.28 2185.72 6970.76 2139.84C6970.76 2139.84 6973.76 2122.52 6999.2 2115.04C6999.2 2115.04 6878.4 2004.88 6832.52 2113.84C6832.52 2113.84 6844.24 2059 6815.44 2034.64C6815.44 2034.64 6776.16 1995.6 6779.16 1982C6779.16 1982 6671.16 2035.92 6758.84 2139.84C6758.84 2139.84 6723.76 2092.6 6671.4 2111.84C6619.04 2131.08 6645.76 2194.2 6622 2204C6622 2204 6676.4 2258.92 6735.28 2229.64Z" fill="#797D63"/>
<path d="M6787.92 2163.68C6787.92 2163.68 6767.36 2146.68 6758.84 2159.68C6750.32 2172.68 6770.84 2180.08 6770.84 2180.08C6770.84 2180.08 6748.64 2169.92 6745.76 2189.28C6742.88 2208.64 6766.8 2199.32 6766.8 2199.32C6766.8 2199.32 6744.24 2206.76 6758.8 2218.68C6773.36 2230.6 6780.6 2212.08 6780.6 2212.08C6780.6 2212.08 6776.6 2236.76 6794.64 2230.04C6812.68 2223.32 6813.16 2204.24 6802.64 2203.92C6802.64 2203.92 6823.4 2230.04 6830.12 2210.4C6836.84 2190.76 6810.6 2189.28 6810.6 2189.28C6810.6 2189.28 6839.6 2198.6 6842.96 2184.56C6846.32 2170.52 6815.28 2160.56 6810.6 2174.76C6810.6 2174.76 6831.72 2152.56 6815.44 2148.64C6799.16 2144.72 6785.04 2146.68 6787.92 2163.68Z" fill="#EDC06F"/>
<path d="M6735.28 1429.64C6735.28 1429.64 6681.96 1460.6 6694.64 1548C6694.64 1548 6738.64 1548.24 6758.84 1564.84C6779.04 1581.44 6868.52 1524.04 6810.16 1442.84C6810.16 1442.84 6828.56 1521.08 6900.4 1520.6C6900.4 1520.6 6925.84 1515.12 6939.32 1520.6C6952.8 1526.08 6990.44 1414 6902.76 1393.72C6902.76 1393.72 6951.28 1385.72 6970.76 1339.84C6970.76 1339.84 6973.76 1322.52 6999.2 1315.04C6999.2 1315.04 6878.4 1204.88 6832.52 1313.84C6832.52 1313.84 6844.24 1259 6815.44 1234.64C6815.44 1234.64 6776.16 1195.6 6779.16 1182C6779.16 1182 6671.16 1235.92 6758.84 1339.84C6758.84 1339.84 6723.76 1292.6 6671.4 1311.84C6619.04 1331.08 6645.76 1394.2 6622 1404C6622 1404 6676.4 1458.92 6735.28 1429.64Z" fill="#797D63"/>
<path d="M6787.92 1363.68C6787.92 1363.68 6767.36 1346.68 6758.84 1359.68C6750.32 1372.68 6770.84 1380.08 6770.84 1380.08C6770.84 1380.08 6748.64 1369.92 6745.76 1389.28C6742.88 1408.64 6766.8 1399.32 6766.8 1399.32C6766.8 1399.32 6744.24 1406.76 6758.8 1418.68C6773.36 1430.6 6780.6 1412.08 6780.6 1412.08C6780.6 1412.08 6776.6 1436.76 6794.64 1430.04C6812.68 1423.32 6813.16 1404.24 6802.64 1403.92C6802.64 1403.92 6823.4 1430.04 6830.12 1410.4C6836.84 1390.76 6810.6 1389.28 6810.6 1389.28C6810.6 1389.28 6839.6 1398.6 6842.96 1384.56C6846.32 1370.52 6815.28 1360.56 6810.6 1374.76C6810.6 1374.76 6831.72 1352.56 6815.44 1348.64C6799.16 1344.72 6785.04 1346.68 6787.92 1363.68Z" fill="#EDC06F"/>
<path d="M6735.28 1043.64C6735.28 1043.64 6681.96 1074.6 6694.64 1162C6694.64 1162 6738.64 1162.24 6758.84 1178.84C6779.04 1195.44 6868.52 1138.04 6810.16 1056.84C6810.16 1056.84 6828.56 1135.08 6900.4 1134.6C6900.4 1134.6 6925.84 1129.12 6939.32 1134.6C6952.8 1140.08 6990.44 1028 6902.76 1007.72C6902.76 1007.72 6951.28 999.72 6970.76 953.84C6970.76 953.84 6973.76 936.52 6999.2 929.04C6999.2 929.04 6878.4 818.88 6832.52 927.84C6832.52 927.84 6844.24 873 6815.44 848.64C6815.44 848.64 6776.16 809.6 6779.16 796C6779.16 796 6671.16 849.92 6758.84 953.84C6758.84 953.84 6723.76 906.6 6671.4 925.84C6619.04 945.08 6645.76 1008.2 6622 1018C6622 1018 6676.4 1072.92 6735.28 1043.64Z" fill="#797D63"/>
<path d="M6787.92 977.68C6787.92 977.68 6767.36 960.68 6758.84 973.68C6750.32 986.68 6770.84 994.08 6770.84 994.08C6770.84 994.08 6748.64 983.92 6745.76 1003.28C6742.88 1022.64 6766.8 1013.32 6766.8 1013.32C6766.8 1013.32 6744.24 1020.76 6758.8 1032.68C6773.36 1044.6 6780.6 1026.08 6780.6 1026.08C6780.6 1026.08 6776.6 1050.76 6794.64 1044.04C6812.68 1037.32 6813.16 1018.24 6802.64 1017.92C6802.64 1017.92 6823.4 1044.04 6830.12 1024.4C6836.84 1004.76 6810.6 1003.28 6810.6 1003.28C6810.6 1003.28 6839.6 1012.6 6842.96 998.56C6846.32 984.52 6815.28 974.56 6810.6 988.76C6810.6 988.76 6831.72 966.56 6815.44 962.64C6799.16 958.72 6785.04 960.68 6787.92 977.68Z" fill="#EDC06F"/>
<path d="M6718.28 633.64C6718.28 633.64 6664.96 664.6 6677.64 752C6677.64 752 6721.64 752.24 6741.84 768.84C6762.04 785.44 6851.52 728.04 6793.16 646.84C6793.16 646.84 6811.56 725.08 6883.4 724.6C6883.4 724.6 6908.84 719.12 6922.32 724.6C6935.8 730.08 6973.44 618 6885.76 597.72C6885.76 597.72 6934.28 589.72 6953.76 543.84C6953.76 543.84 6956.76 526.52 6982.2 519.04C6982.2 519.04 6861.4 408.88 6815.52 517.84C6815.52 517.84 6827.24 463 6798.44 438.64C6798.44 438.64 6759.16 399.6 6762.16 386C6762.16 386 6654.16 439.92 6741.84 543.84C6741.84 543.84 6706.76 496.6 6654.4 515.84C6602.04 535.08 6628.76 598.2 6605 608C6605 608 6659.4 662.92 6718.28 633.64Z" fill="#797D63"/>
<path d="M6770.92 567.68C6770.92 567.68 6750.36 550.68 6741.84 563.68C6733.32 576.68 6753.84 584.08 6753.84 584.08C6753.84 584.08 6731.64 573.92 6728.76 593.28C6725.88 612.64 6749.8 603.32 6749.8 603.32C6749.8 603.32 6727.24 610.76 6741.8 622.68C6756.36 634.6 6763.6 616.08 6763.6 616.08C6763.6 616.08 6759.6 640.76 6777.64 634.04C6795.68 627.32 6796.16 608.24 6785.64 607.92C6785.64 607.92 6806.4 634.04 6813.12 614.4C6819.84 594.76 6793.6 593.28 6793.6 593.28C6793.6 593.28 6822.6 602.6 6825.96 588.56C6829.32 574.52 6798.28 564.56 6793.6 578.76C6793.6 578.76 6814.72 556.56 6798.44 552.64C6782.16 548.72 6768.04 550.68 6770.92 567.68Z" fill="#EDC06F"/>
<path d="M6735.28 247.64C6735.28 247.64 6681.96 278.6 6694.64 366C6694.64 366 6738.64 366.24 6758.84 382.84C6779.04 399.44 6868.52 342.04 6810.16 260.84C6810.16 260.84 6828.56 339.08 6900.4 338.6C6900.4 338.6 6925.84 333.12 6939.32 338.6C6952.8 344.08 6990.44 232 6902.76 211.72C6902.76 211.72 6951.28 203.72 6970.76 157.84C6970.76 157.84 6973.76 140.52 6999.2 133.04C6999.2 133.04 6878.4 22.88 6832.52 131.84C6832.52 131.84 6844.24 77 6815.44 52.64C6815.44 52.64 6776.16 13.6 6779.16 0C6779.16 0 6671.16 53.92 6758.84 157.84C6758.84 157.84 6723.76 110.6 6671.4 129.84C6619.04 149.08 6645.76 212.2 6622 222C6622 222 6676.4 276.92 6735.28 247.64Z" fill="#797D63"/>
<path d="M6787.92 181.68C6787.92 181.68 6767.36 164.68 6758.84 177.68C6750.32 190.68 6770.84 198.08 6770.84 198.08C6770.84 198.08 6748.64 187.92 6745.76 207.28C6742.88 226.64 6766.8 217.32 6766.8 217.32C6766.8 217.32 6744.24 224.76 6758.8 236.68C6773.36 248.6 6780.6 230.08 6780.6 230.08C6780.6 230.08 6776.6 254.76 6794.64 248.04C6812.68 241.32 6813.16 222.24 6802.64 221.92C6802.64 221.92 6823.4 248.04 6830.12 228.4C6836.84 208.76 6810.6 207.28 6810.6 207.28C6810.6 207.28 6839.6 216.6 6842.96 202.56C6846.32 188.52 6815.28 178.56 6810.6 192.76C6810.6 192.76 6831.72 170.56 6815.44 166.64C6799.16 162.72 6785.04 164.68 6787.92 181.68Z" fill="#EDC06F"/>
<path d="M6743.52 1834.36C6743.52 1834.36 6690.2 1865.32 6702.88 1952.72C6702.88 1952.72 6746.88 1952.96 6767.08 1969.56C6787.28 1986.16 6876.76 1928.76 6818.4 1847.56C6818.4 1847.56 6836.8 1925.8 6908.64 1925.32C6908.64 1925.32 6934.08 1919.84 6947.56 1925.32C6961.04 1930.8 6998.68 1818.72 6911 1798.44C6911 1798.44 6959.52 1790.44 6979 1744.56C6979 1744.56 6982 1727.24 7007.44 1719.76C7007.44 1719.76 6886.64 1609.6 6840.76 1718.56C6840.76 1718.56 6852.48 1663.72 6823.68 1639.36C6823.68 1639.36 6784.4 1600.32 6787.4 1586.72C6787.4 1586.72 6679.4 1640.64 6767.08 1744.56C6767.08 1744.56 6732 1697.32 6679.64 1716.56C6627.28 1735.8 6654 1798.92 6630.24 1808.72C6630.24 1808.72 6684.64 1863.64 6743.52 1834.36Z" fill="#797D63"/>
<path d="M6796.16 1768.4C6796.16 1768.4 6775.6 1751.4 6767.08 1764.4C6758.56 1777.4 6779.08 1784.8 6779.08 1784.8C6779.08 1784.8 6756.88 1774.64 6754 1794C6751.12 1813.36 6775.04 1804.04 6775.04 1804.04C6775.04 1804.04 6752.48 1811.48 6767.04 1823.4C6781.6 1835.32 6788.84 1816.8 6788.84 1816.8C6788.84 1816.8 6784.84 1841.48 6802.88 1834.76C6820.92 1828.04 6821.4 1808.96 6810.88 1808.64C6810.88 1808.64 6831.64 1834.76 6838.36 1815.12C6845.08 1795.48 6818.84 1794 6818.84 1794C6818.84 1794 6847.84 1803.32 6851.2 1789.28C6854.56 1775.24 6823.52 1765.28 6818.84 1779.48C6818.84 1779.48 6839.96 1757.28 6823.68 1753.36C6807.4 1749.44 6793.28 1751.4 6796.16 1768.4Z" fill="#EDC06F"/>
<defs>
<clipPath id="clip0_2_365">
<rect width="400" height="400" fill="white" transform="translate(17 2800)"/>
</clipPath>
<clipPath id="clip1_2_365">
<rect width="400" height="400" fill="white" transform="translate(6622 2782)"/>
</clipPath>
</defs>
</svg>
